<svg xmlns="http://www.w3.org/2000/svg" fill="none" viewBox="0 0 16 16" height="16" width="16">
  <path fill="#000000" d="M7.843744 0c0.247344 0.0002876816 0.4894720000000001 0.07462144000000001 0.69376 0.21406239999999999 0.204336 0.139552 0.36126400000000003 0.338376 0.45155200000000006 0.5687504l0.121888 0.30937440000000005c-0.064704 0.1340704 -0.17297600000000002 0.299352 -0.34844800000000004 0.47343840000000004 -0.165856 0.16450240000000002 -0.33840000000000003 0.28055040000000003 -0.489056 0.35155840000000005 -0.154752 0.072896 -0.25088 0.082736 -0.27500800000000003 0.082816 -1.3254400000000002 0 -2.39992 1.0745760000000002 -2.4000000000000004 2.4000000000000004 0 0.577648 0.203776 1.107728 0.54376 1.5218720000000001 -0.18022400000000002 0.10416000000000002 -0.346528 0.23251200000000002 -0.49531200000000003 0.38124800000000003 -0.33553600000000006 0.33553600000000006 -0.565152 0.762752 -0.6578240000000001 1.228128 -0.09259200000000001 0.465552 -0.044144 0.94896 0.13750400000000002 1.387504 0.1816 0.43816 0.488512 0.81296 0.882816 1.07656 0.394672 0.263712 0.859696 0.404688 1.3343680000000002 0.404688 0.636352 -0.00012800000000000002 1.246896 -0.253152 1.6968800000000002 -0.7031200000000001 0.173856 -0.173904 0.31792 -0.37193600000000004 0.4296960000000001 -0.585936 0.40064000000000005 0.766304 1.2035360000000002 1.288816 2.1281120000000002 1.2890560000000002 0.8746880000000001 0 1.641488 -0.46799999999999997 2.060944 -1.167184l0.757808 0.9515520000000001c0.15468800000000002 0.19292800000000002 0.247072 0.428416 0.26563200000000003 0.675008 0.018496000000000002 0.246528 -0.038448 0.49241599999999996 -0.162496 0.7062560000000001l-0.498448 0.8687360000000001c-0.12364800000000001 0.214064 -0.310064 0.38496 -0.532816 0.492192 -0.222848 0.107216 -0.472656 0.146336 -0.717184 0.10937600000000001l-1.459376 -0.22187199999999999 -1.785936 1.0312480000000002 -0.5375040000000001 1.371872c-0.09028800000000001 0.23038400000000003 -0.24721600000000002 0.4292 -0.45155200000000006 0.568752 -0.204288 0.13944 -0.446416 0.21377600000000002 -0.69376 0.214064h-1.001552c-0.247344 -0.00035200000000000005 -0.489504 -0.074576 -0.69376 -0.214064 -0.20424000000000003 -0.139536 -0.36128000000000005 -0.338448 -0.45155200000000006 -0.568752l-0.5375040000000001 -1.371872 -1.785936 -1.0312480000000002 -1.459376 0.22187199999999999c-0.24446400000000001 0.036848 -0.49443200000000004 -0.002128 -0.7171888000000001 -0.10937600000000001 -0.222496 -0.107168 -0.4076384 -0.2784 -0.5312496000000001 -0.492192l-0.5 -0.8687360000000001c-0.12394208000000001 -0.21376 -0.180974144 -0.45985600000000004 -0.162500608 -0.7062560000000001 0.018562848000000003 -0.246752 0.112329568 -0.482016 0.267187008 -0.675008l0.9187504000000001 -1.154688v-2.05936l-0.9187504000000001 -1.154688c-0.15485744 -0.19299200000000002 -0.24862416 -0.428256 -0.267187008 -0.675008 -0.018473536 -0.2464 0.038558528 -0.492496 0.162500608 -0.7062560000000001l0.5 -0.8687360000000001c0.12361120000000002 -0.21379199999999998 0.3087536 -0.38502400000000003 0.5312496000000001 -0.492192 0.22275680000000003 -0.10724800000000001 0.47272480000000006 -0.146224 0.7171888000000001 -0.10937600000000001l1.459376 0.22187199999999999 1.785936 -1.0312480000000002 0.5375040000000001 -1.3718752c0.090272 -0.23030400000000004 0.24731200000000003 -0.4292064 0.45155200000000006 -0.5687504C6.352688000000001 0.07456816000000001 6.594848000000001 0.0003483008 6.842192000000001 0zm3.7546880000000002 0c0.44184 0 0.8 0.3581728 0.8 0.8 0 0.6249168 0.33579200000000003 1.331104 0.910944 1.9015680000000001C13.885440000000001 3.2728960000000002 14.593440000000001 3.6 15.200000000000001 3.6c0.44179199999999996 0 0.7999360000000001 0.35822400000000004 0.8 0.8 0 0.441824 -0.35817600000000005 0.8 -0.8 0.8 -0.606544 0 -1.3145600000000002 0.32712 -1.890624 0.8984320000000001 -0.575136 0.570416 -0.9108480000000001 1.276688 -0.910944 1.9015680000000001 0 0.441824 -0.35816000000000003 0.8 -0.8 0.8 -0.441536 -0.00033600000000000004 -0.8 -0.35838400000000004 -0.8 -0.8 -0.000096 -0.624832 -0.33432 -1.3311840000000001 -0.909376 -1.9015680000000001 -0.575968 -0.5712320000000001 -1.2841440000000002 -0.8983040000000001 -1.890624 -0.8984320000000001 -0.441824 0 -0.8 -0.35817600000000005 -0.8 -0.8 0.00008 -0.44177600000000006 0.35822400000000004 -0.8 0.8 -0.8 0.60648 -0.00012800000000000002 1.314672 -0.327216 1.890624 -0.8984320000000001 0.575056 -0.5704480000000001 0.909376 -1.276712 0.909376 -1.9015680000000001 0 -0.44162239999999997 0.358464 -0.79966744 0.8 -0.8" stroke-width="1.6"></path>
</svg>