<svg xmlns="http://www.w3.org/2000/svg" fill="none" viewBox="0 0 16 16" id="Announcement-Megaphone--Streamline-Micro" height="16" width="16">
  <desc>
    Announcement Megaphone Streamline Icon: https://streamlinehq.com
  </desc>
  <path fill="#000000" fill-rule="evenodd" d="M11.388800000000002 1.2272A1 1 0 0 0 9.440000000000001 0.7744l-0.288 1.2352a1 1 0 1 0 1.9488 0.4528zm-3.7008000000000005 1.4608a1.192 1.192 0 0 0 -1.016 0.4l-0.0048000000000000004 0.008L0.384 10.424l-0.0016 0a1.5888 1.5888 0 0 0 -0.1648 1.8336l0.42400000000000004 0.7328000000000001a1.5904 1.5904 0 0 0 1.6736000000000002 0.7808l0.0016 0 0.11200000000000002 -0.0208c0.064 0.1632 0.1392 0.32000000000000006 0.22719999999999999 0.472A3.4352 3.4352 0 0 0 9.096 12.496l2.7056000000000004 -0.5088 0.008 0a1.192 1.192 0 0 0 0.7936000000000001 -1.7776l-4 -6.928000000000001a1.192 1.192 0 0 0 -0.9152 -0.592ZM4.0528 13.4448 7.4816 12.8a1.8352000000000002 1.8352000000000002 0 0 1 -3.4288 0.6464000000000001Zm11.920000000000002 -4.856000000000001a1 1 0 0 1 -1.2000000000000002 0.7472000000000001l-1.2352 -0.288a1 1 0 0 1 0.4528 -1.9472000000000003l1.2352 0.288a1 1 0 0 1 0.7488000000000001 1.2000000000000002Zm-1.2128 -4.008a1 1 0 1 0 -1.056 -1.6960000000000002l-1.0784 0.6704a1 1 0 1 0 1.056 1.6960000000000002z" clip-rule="evenodd" stroke-width="1.6"></path>
</svg>