<svg xmlns="http://www.w3.org/2000/svg" fill="none" viewBox="0 0 16 16" id="Flash-1--Streamline-Micro" height="16" width="16">
  <desc>
    Flash 1 Streamline Icon: https://streamlinehq.com
  </desc>
  <path fill="#000000" fill-rule="evenodd" d="M4.6256 0a0.8 0.8 0 0 0 -0.7456 0.512L2.2592 4.688000000000001l-0.6880000000000001 1.7760000000000002 -0.20800000000000002 0.536 -0.0576 0.144 -0.0144 0.038400000000000004 -0.0032 0.009600000000000001 0 0.0032 0.7440000000000001 0.2896 -0.7456 -0.288 -0.0064 0.016a1.2960000000000003 1.2960000000000003 0 0 0 0.24960000000000002 1.312c0.26880000000000004 0.30720000000000003 0.672 0.4912 1.088 0.4912h2.304L3.152 14.972800000000001a0.8 0.8 0 0 0 1.3184 0.8064L14.356800000000002 6.368a1.36 1.36 0 0 0 0.336 -1.5312000000000001 1.3920000000000001 1.3920000000000001 0 0 0 -1.3008 -0.8352H11.0128l1.2160000000000002 -2.8896A0.8 0.8 0 0 0 11.491200000000001 0h-6.864000000000001Z" clip-rule="evenodd" stroke-width="1.6"></path>
</svg>