<svg xmlns="http://www.w3.org/2000/svg" viewBox="0 0 16 16" id="Galactic-Senate--Streamline-Font-Awesome" height="16" width="16">
  <desc>
    Galactic Senate Streamline Icon: https://streamlinehq.com
  </desc>
<!--! Font Awesome Free 6.5.2 by @fontawesome - https://fontawesome.com License - https://fontawesome.com/license/free (Icons: CC BY 4.0, Fonts: SIL OFL 1.1, Code: MIT License) Copyright 2024 Fonticons, Inc.-->
  <path d="M7.8119625 1.21595V2.01434375C7.396075 2.64583125 7.08125 5.3399125 7.06256875 8.6094375c0.3595375 -0.4783625 0.58585625 -1.02073125 0.58585625 -1.47735v-0.51695c-0.00091875 -0.162925 0.02296875 -0.32248125 0.06706875 -0.47928125 0.01990625 -0.0655375 0.04256875 -0.12495 0.0802375 -0.1782375 0.03766875 -0.05359375 0.10504375 -0.11606875 0.204575 -0.11606875 0.099225 0 0.16690625 0.06278125 0.204575 0.11606875 0.03766875 0.05359375 0.06033125 0.1127 0.0802375 0.1782375 0.0441 0.1568 0.0679875 0.31635625 0.06706875 0.47928125v0.51695c0 0.45661875 0.22631875 0.9989875 0.58585625 1.47735 -0.01929375 -3.269525 -0.33411875 -5.96360625 -0.75000625 -6.59509375V1.21595h-0.376075ZM7.0053 5.74140625c-0.29155 0.06584375 -0.5726875 0.15894375 -0.8409625 0.278075 0.2725625 0.493675 0.2989 0.9996 0.05236875 1.14200625 -0.245 0.1414875 -0.66915625 -0.12954375 -0.9604 -0.6069875 -0.3546375 0.26919375 -0.670075 0.591675 -0.9359 0.95213125 0.45110625 0.2946125 0.70100625 0.701925 0.56105 0.9389625 -0.1390375 0.2358125 -0.61341875 0.2186625 -1.08626875 -0.0294 -0.1770125 0.40578125 -0.29859375 0.84249375 -0.35678125 1.2991125 0.29645 0.0055125 0.57176875 0.0728875 0.8017625 0.184975 0.5445125 -0.0091875 1.00358125 -0.060025 1.24000625 -0.1292375 0.16996875 -0.80696875 0.7049875 -1.47704375 1.41855 -1.82249375 0.02235625 -0.78246875 0.057575 -1.52114375 0.106575 -2.20714375Zm1.9894 0c0.04869375 0.686 0.08421875 1.424675 0.10626875 2.20714375 0.71325625 0.34545 1.24858125 1.015525 1.41855 1.82249375 0.236425 0.0692125 0.69549375 0.12005 1.24000625 0.1292375 0.22999375 -0.1120875 0.5053125 -0.17915625 0.8017625 -0.184975 -0.0581875 -0.45661875 -0.1794625 -0.89333125 -0.35678125 -1.2991125 -0.47285 0.2480625 -0.94723125 0.2652125 -1.08626875 0.0294 -0.13995625 -0.2370375 0.11025 -0.64465625 0.56105 -0.9389625 -0.265825 -0.36045625 -0.5812625 -0.6829375 -0.9359 -0.95213125 -0.29124375 0.47744375 -0.7154 0.748475 -0.9604 0.6069875 -0.24653125 -0.14240625 -0.22019375 -0.648025 0.05236875 -1.14200625 -0.270434375 -0.12 -0.55200625 -0.213140625 -0.84065625 -0.278075ZM8 6.00478125c-0.09891875 0 -0.1794625 0.26980625 -0.18650625 0.61035625h-0.00153125v0.51695c0 1.2684875 -1.50093125 2.9106 -2.86313125 2.9106 -1.5925 0 -3.75921875 -0.04440625 -4.78883125 0.89333125v0.07686875c0.2884875 0.5243 0.6302625 1.01583125 1.0161375 1.46908125C1.5595625 11.8360875 2.75608125 11.227875 4.48425 11.215625c1.39895 0.0312375 2.42029375 0.62260625 2.779525 1.25164375 0.00030625 0.00030625 -0.00030625 0.001225 0 0.00153125 0.23489375 0.0655375 0.48540625 0.09891875 0.736225 0.09830625 0.25081875 0.0006125 0.50133125 -0.03276875 0.736225 -0.09830625 0.00030625 -0.00030625 -0.00030625 -0.001225 0 -0.00153125 0.3595375 -0.6290375 1.380575 -1.22040625 2.779525 -1.25164375 1.72816875 0.01194375 2.92438125 0.6204625 3.3081125 1.26634375 0.385875 -0.45325 0.72765 -0.9450875 1.0161375 -1.46908125v-0.07686875c-1.02930625 -0.9377375 -3.19633125 -0.89333125 -4.78883125 -0.89333125 -1.3622 0 -2.86313125 -1.6421125 -2.86313125 -2.9106v-0.51695h-0.00153125c-0.00704375 -0.34055 -0.0875875 -0.61035625 -0.18650625 -0.61035625Zm0 2.95806875c0.6866125 0 1.243375 0.5567625 1.243375 1.243375s-0.5567625 1.24490625 -1.243375 1.24490625 -1.243375 -0.55829375 -1.243375 -1.24490625c0 -0.6866125 0.5567625 -1.243375 1.243375 -1.243375Zm0 0.233975c-0.55706875 0 -1.0094 0.45233125 -1.0094 1.0094S7.44293125 11.215625 8 11.215625s1.0094 -0.45233125 1.0094 -1.0094S8.55706875 9.196825 8 9.196825Zm0 0.1880375c0.45355625 0 0.8213625 0.36780625 0.8213625 0.8213625S8.45355625 11.0275875 8 11.0275875s-0.8213625 -0.36780625 -0.8213625 -0.8213625S7.54644375 9.3848625 8 9.3848625Zm-3.51575 2.04176875c-0.31206875 0.00214375 -0.6615 0.011025 -0.9340625 0.0508375 0.01316875 0.1353625 0.04624375 0.57054375 0.21774375 0.9114 0.27899375 -0.0784 0.562275 -0.1194375 0.8458625 -0.1194375 1.2642 0.0287875 2.189075 1.05196875 2.3967125 2.28064375l0.00336875 0.1439375c0.3185 0.05849375 0.64894375 0.0900375 0.98643125 0.0900375 0.33779375 0 0.66793125 -0.0312375 0.98643125 -0.0900375l0.00336875 -0.1439375c0.2076375 -1.228675 1.1325125 -2.25185625 2.3967125 -2.28064375 0.2835875 0 0.56686875 0.0410375 0.8458625 0.1194375 0.1715 -0.34085625 0.204575 -0.7760375 0.21774375 -0.9114 -0.2725625 -0.0398125 -0.6223 -0.0483875 -0.9340625 -0.0508375 -0.574525 0.0128625 -1.07769375 0.12770625 -1.48868125 0.29614375 -0.3840375 0.49091875 -0.893025 0.91966875 -1.5183875 1.01276875 -0.00275625 0.0006125 -0.00520625 0.001225 -0.00826875 0.00153125 -0.00153125 0.00030625 -0.00336875 0.001225 -0.0049 0.00153125 -0.160475 0.03276875 -0.32554375 0.049 -0.49581875 0.049 -0.16996875 0 -0.33534375 -0.01623125 -0.49581875 -0.049 -0.00153125 -0.00030625 -0.00336875 -0.001225 -0.0049 -0.00153125 -0.0030625 -0.0006125 -0.00520625 -0.001225 -0.00826875 -0.00153125 -0.6253625 -0.09279375 -1.13404375 -0.52185 -1.5183875 -1.01276875 -0.4109875 -0.16813125 -0.9144625 -0.28328125 -1.48868125 -0.29614375Z" fill="#000000" stroke-width="0.0313"></path>
</svg>