<?xml version="1.0" encoding="UTF-8" standalone="no"?>
<svg
   viewBox="0 0 24 24"
   fill="none"
   stroke="#000000"
   stroke-linecap="round"
   stroke-linejoin="round"
   id="Brand-Slack--Streamline-Tabler"
   height="24"
   width="24"
   version="1.1"
   sodipodi:docname="Brand-Slack--Streamline-Tabler.svg"
   xmlns:inkscape="http://www.inkscape.org/namespaces/inkscape"
   xmlns:sodipodi="http://sodipodi.sourceforge.net/DTD/sodipodi-0.dtd"
   xmlns="http://www.w3.org/2000/svg"
   xmlns:svg="http://www.w3.org/2000/svg">
  <defs
     id="defs4" />
  <sodipodi:namedview
     id="namedview4"
     pagecolor="#ffffff"
     bordercolor="#000000"
     borderopacity="0.25"
     inkscape:showpageshadow="2"
     inkscape:pageopacity="0.0"
     inkscape:pagecheckerboard="0"
     inkscape:deskcolor="#d1d1d1">
    <inkscape:page
       x="0"
       y="0"
       width="24"
       height="24"
       id="page2"
       margin="0"
       bleed="0" />
  </sodipodi:namedview>
  <desc
     id="desc1">
    Brand Slack Streamline Icon: https://streamlinehq.com
  </desc>
  <path
     d="M 12,12 V 6 a 2,2 0 0 1 4,0 v 6 m 0,-2 a 2,2 0 1 1 2,2 h -6"
     stroke-width="2"
     id="path1" />
  <path
     d="m 12,12 h 6 a 2,2 0 0 1 0,4 h -6 m 2,0 a 2,2 0 1 1 -2,2 v -6"
     stroke-width="2"
     id="path2" />
  <path
     d="m 12,12 v 6 a 2,2 0 0 1 -4,0 v -6 m 0,2 A 2,2 0 1 1 6,12 h 6"
     stroke-width="2"
     id="path3" />
  <path
     d="M 12,12 H 6 A 2,2 0 0 1 6,8 h 6 m -2,0 a 2,2 0 1 1 2,-2 v 6"
     stroke-width="2"
     id="path4" />
  <path
     style="fill:#6600ff;stroke-width:0.012952"
     d="M 9.7593092,18.962151 C 9.5673804,18.911322 9.418922,18.821991 9.2787527,18.672986 9.127961,18.51269 9.0418483,18.331228 9.015014,18.117221 9.0062033,18.046954 9.001619,17.153656 9.001619,15.507086 v -2.503308 h 0.9975497 0.9975493 l -0.0036,2.58068 -0.0036,2.58068 -0.02936,0.09492 c -0.109445,0.353797 -0.377646,0.614986 -0.720472,0.701635 -0.135146,0.03416 -0.3523528,0.03437 -0.4803888,4.58e-4 z"
     id="path5" />
  <path
     style="fill:#6600ff;stroke-width:0.012952"
     d="m 13.006874,8.4155424 0.0036,-2.58068 0.02988,-0.096785 c 0.110047,-0.3564621 0.376431,-0.6135999 0.726505,-0.7012905 0.09072,-0.022724 0.13634,-0.026364 0.271991,-0.0217 0.139712,0.0048 0.179199,0.011274 0.276467,0.045304 0.06241,0.021835 0.146923,0.059314 0.187803,0.083287 0.0962,0.05641 0.295016,0.2555054 0.351803,0.3522908 0.06209,0.1058149 0.114311,0.2611286 0.13007,0.3868114 0.0088,0.070266 0.0134,0.963565 0.0134,2.6101352 v 2.5033077 h -0.99755 -0.997549 z"
     id="path6" />
  <path
     style="fill:#6600ff;stroke-width:0.012952"
     d="m 5.8604626,10.983427 c -0.3963972,-0.05827 -0.7254028,-0.357957 -0.823676,-0.750279 -0.022724,-0.09072 -0.026364,-0.13634 -0.0217,-0.2719915 0.0048,-0.1397115 0.011274,-0.1791989 0.045304,-0.2764664 0.021835,-0.062411 0.059314,-0.1469228 0.083287,-0.1878035 C 5.2000876,9.4006906 5.399183,9.2018711 5.4959684,9.1450843 5.6017833,9.0829993 5.757097,9.0307733 5.8827798,9.015014 5.9530458,9.006204 6.8463448,9.001619 8.492915,9.001619 h 2.503308 v 0.9973017 0.9973013 l -2.5353482,-0.0016 c -1.3944415,-8.88e-4 -2.5646267,-0.0059 -2.6004117,-0.01118 z"
     id="path7" />
  <path
     style="fill:#6600ff;stroke-width:0.012952"
     d="m 13.003778,14.000831 v -0.997549 l 2.58068,0.0036 2.58068,0.0036 0.09679,0.02988 c 0.356462,0.110047 0.6136,0.376431 0.70129,0.726505 0.02272,0.09072 0.02636,0.13634 0.0217,0.271991 -0.0048,0.139406 -0.0113,0.179286 -0.045,0.275595 -0.05407,0.154543 -0.139249,0.285635 -0.259999,0.400162 -0.164216,0.155755 -0.345184,0.242403 -0.566319,0.271158 -0.05202,0.0068 -1.164781,0.01199 -2.60037,0.01222 l -2.509444,4e-4 z"
     id="path8" />
  <path
     style="fill:#8d5fd3;stroke-width:0.012952"
     d="m 13.756826,18.961911 c -0.345963,-0.0932 -0.611237,-0.353154 -0.716207,-0.701853 -0.02724,-0.09047 -0.02881,-0.122107 -0.03365,-0.675357 l -0.0051,-0.580436 0.587023,0.0043 0.587023,0.0043 0.120197,0.04058 c 0.27078,0.09141 0.469086,0.263137 0.595654,0.515812 0.113992,0.22757 0.130959,0.481273 0.04939,0.738484 -0.04451,0.140343 -0.11218,0.251476 -0.22657,0.37208 -0.114448,0.120667 -0.245487,0.205841 -0.400162,0.260101 -0.100262,0.03517 -0.131766,0.03994 -0.287455,0.04354 -0.142742,0.0033 -0.192353,-6.79e-4 -0.270157,-0.02164 z"
     id="path9" />
  <path
     style="fill:#8d5fd3;stroke-width:0.012952"
     d="m 5.8737183,14.985459 c -0.1150073,-0.01631 -0.2737647,-0.07055 -0.3686908,-0.12598 -0.116107,-0.0678 -0.2741611,-0.221652 -0.3458342,-0.336646 -0.032837,-0.05269 -0.077434,-0.146463 -0.099104,-0.208395 -0.033698,-0.09631 -0.04021,-0.136189 -0.045003,-0.275595 -0.00466,-0.135443 -0.00103,-0.181074 0.021452,-0.269981 0.089483,-0.353856 0.3472384,-0.621233 0.7015385,-0.727727 0.092783,-0.02789 0.12079,-0.0293 0.6772215,-0.03417 l 0.5804361,-0.0051 -0.00411,0.587023 -0.00411,0.587023 -0.042721,0.123044 c -0.096038,0.276603 -0.2611441,0.46602 -0.5187615,0.595146 -0.154615,0.0775 -0.3832507,0.115307 -0.5523177,0.09134 z"
     id="path10" />
  <path
     style="fill:#8d5fd3;stroke-width:0.012952"
     d="M 9.8348807,6.9798621 C 9.7399466,6.9640067 9.5711486,6.900008 9.4839437,6.8468065 9.1623549,6.6506137 8.9678876,6.259335 9.0130315,5.8993056 9.0422139,5.6665714 9.1262274,5.4879085 9.2853995,5.3200886 9.3999268,5.199339 9.5310193,5.1141638 9.6855618,5.0600897 c 0.096309,-0.033698 0.1361892,-0.04021 0.2755947,-0.045003 0.1354435,-0.00466 0.1810745,-0.00103 0.2699815,0.021452 0.353244,0.089328 0.621338,0.348278 0.728244,0.7034036 0.02723,0.090464 0.02881,0.1221283 0.03365,0.6745208 l 0.0051,0.5796007 -0.548163,-0.00151 C 10.148479,6.991721 9.8717008,6.9860138 9.8349057,6.9798658 Z"
     id="path11" />
  <path
     style="fill:#8d5fd3;stroke-width:0.012952"
     d="m 17.008612,10.411092 0.0043,-0.5870229 0.04058,-0.1201966 c 0.09141,-0.2707807 0.263137,-0.4690867 0.515812,-0.5956544 0.22757,-0.1139923 0.481273,-0.1309594 0.738484,-0.049388 0.140343,0.044508 0.251476,0.11218 0.37208,0.2265697 0.12075,0.1145273 0.205925,0.2456198 0.259999,0.4001623 0.0337,0.096309 0.04021,0.1361892 0.045,0.2755947 0.0047,0.1354432 10e-4,0.1810742 -0.02145,0.2699812 -0.08915,0.352527 -0.348998,0.621555 -0.703403,0.728244 -0.09047,0.02724 -0.122107,0.02881 -0.675357,0.03365 l -0.580436,0.0051 z"
     id="path12" />
</svg>
