<svg xmlns="http://www.w3.org/2000/svg" fill="none" viewBox="0 0 16 16" id="Inbox-Open--Streamline-Micro" height="16" width="16">
  <desc>
    Inbox Open Streamline Icon: https://streamlinehq.com
  </desc>
  <path fill="#000000" fill-rule="evenodd" d="M8 10.452800000000002 2.5440000000000005 6.4176V1.2128A1.2128 1.2128 0 0 1 3.7584000000000004 0h8.486400000000001a1.2128 1.2128 0 0 1 1.2112 1.2128V6.416L8.001600000000002 10.452800000000002h-0.0032Zm-1.8175999999999999 -8.272a0.8 0.8 0 1 0 0 1.6h3.6351999999999998a0.8 0.8 0 1 0 0 -1.6zm-0.8 3.8287999999999998a0.8 0.8 0 0 1 0.8 -0.8h3.6351999999999998a0.8 0.8 0 0 1 0 1.6H6.1824a0.8 0.8 0 0 1 -0.8 -0.8m10.064 0.9264v7.5872c0 0.8160000000000001 -0.6624 1.4768000000000001 -1.4768000000000001 1.4768000000000001H2.0303999999999998a1.4768000000000001 1.4768000000000001 0 0 1 -1.4768000000000001 -1.4768000000000001V6.936l6.494400000000001 4.8032a1.4768000000000001 1.4768000000000001 0 0 0 1.904 0z" clip-rule="evenodd" stroke-width="1.6"></path>
</svg>