<svg xmlns="http://www.w3.org/2000/svg" fill="none" viewBox="0 0 16 16" id="Mail-Send--Streamline-Micro" height="16" width="16">
  <desc>
    Mail Send Streamline Icon: https://streamlinehq.com
  </desc>
  <path fill="#000000" fill-rule="evenodd" d="M5.3024000000000004 12.120000000000001V5.9408l4.0576 3.5200000000000005 0.008 0.0064a1.9888000000000003 1.9888000000000003 0 0 0 2.5664000000000002 0l0.008 -0.008L16 5.9408v6.179200000000001c0 0.656 -0.5328 1.1888 -1.1888 1.1888h-8.32a1.1888 1.1888 0 0 1 -1.1888 -1.1888m9.508799999999999 -8.32a1.184 1.184 0 0 1 0.8288000000000001 0.336L10.8992 8.2464a0.38880000000000003 0.38880000000000003 0 0 1 -0.496 0L5.664000000000001 4.136a1.184 1.184 0 0 1 0.8288000000000001 -0.336h8.32Zm-13.8112 0.0688a1 1 0 1 0 0 2h1.7408000000000001a1 1 0 1 0 0 -2zm0 3.5488a1 1 0 1 0 0 2h1.7408000000000001a1 1 0 1 0 0 -2zM0 12.1744c0 -0.5519999999999999 0.44800000000000006 -1 1 -1h1.7408000000000001a1 1 0 1 1 0 2H1A1 1 0 0 1 0 12.176000000000002Z" clip-rule="evenodd" stroke-width="1.6"></path>
</svg>